<?xml version="1.0" encoding="UTF-8"?>
<svg version="1.1" xmlns="http://www.w3.org/2000/svg" width="500" height="500">
<path d="M0 0 C0.78503906 0.06703125 1.57007813 0.1340625 2.37890625 0.203125 C4.4375 0.75 4.4375 0.75 6.4375 3.75 C3.91793257 5.02339482 1.39691351 6.29376642 -1.125 7.5625 C-1.82947266 7.91892578 -2.53394531 8.27535156 -3.25976562 8.64257812 C-6.60400794 10.32240491 -9.93073646 11.92406774 -13.40234375 13.32421875 C-16.49912408 14.48313575 -16.49912408 14.48313575 -18.0859375 16.34765625 C-20.42883463 18.57278871 -23.05593743 18.6382826 -26.1875 19.1875 C-31.26256957 20.18383268 -35.50432954 21.43025873 -40.12109375 23.69921875 C-45.3788244 25.96214602 -51.0424987 27.27381188 -56.5625 28.75 C-55.44746094 29.04648437 -54.33242187 29.34296875 -53.18359375 29.6484375 C-49.88321951 30.65243484 -48.60274563 31.10968212 -46.5625 33.75 C-46.2325 32.43 -45.9025 31.11 -45.5625 29.75 C-38.9625 29.75 -32.3625 29.75 -25.5625 29.75 C-25.5625 30.41 -25.5625 31.07 -25.5625 31.75 C-24.9025 31.75 -24.2425 31.75 -23.5625 31.75 C-23.2325 32.41 -22.9025 33.07 -22.5625 33.75 C-21.923125 33.09 -21.28375 32.43 -20.625 31.75 C-16.56912863 29.10126768 -13.29327787 28.8480573 -8.5625 29.75 C-6.06089182 31.62620613 -4.94304348 32.98891303 -3.5625 35.75 C-3.522508 37.74960012 -3.51903201 39.75047242 -3.5625 41.75 C-5.2125 42.41 -6.8625 43.07 -8.5625 43.75 C-7.923125 44.430625 -7.28375 45.11125 -6.625 45.8125 C-4.16684135 49.31351384 -3.63857032 51.49006222 -3.5625 55.75 C-4.90812399 58.69755732 -5.64804544 60.29277272 -8.5625 61.75 C-13.85160111 62.15253336 -18.77540155 62.30311917 -23.5625 59.75 C-24.0575 60.74 -24.0575 60.74 -24.5625 61.75 C-31.4925 61.75 -38.4225 61.75 -45.5625 61.75 C-45.5625 61.09 -45.5625 60.43 -45.5625 59.75 C-49.60872502 59.38019987 -49.60872502 59.38019987 -52.5625 61.75 C-55.97375792 62.35130648 -59.15567466 62.39115692 -62.5625 61.75 C-65.43140102 59.6387997 -66.97561435 56.92377131 -68.5625 53.75 C-69.28762335 46.13026124 -68.92190204 39.25265321 -64.5625 32.75 C-63.5725 32.09 -62.5825 31.43 -61.5625 30.75 C-65.49065844 29.20893951 -67.93857632 30.36948991 -71.75390625 31.875 C-73.54151367 32.56335938 -73.54151367 32.56335938 -75.36523438 33.265625 C-76.61892592 33.75931004 -77.87217717 34.25411456 -79.125 34.75 C-81.58074757 35.71926582 -84.04037922 36.67533501 -86.50390625 37.625 C-87.59388916 38.05554688 -88.68387207 38.48609375 -89.80688477 38.9296875 C-92.5625 39.75 -92.5625 39.75 -95.5625 38.75 C-85.42546117 33.86058021 -75.07874492 29.73932748 -64.5625 25.75 C-64.5625 25.09 -64.5625 24.43 -64.5625 23.75 C-64.5625 22.43 -64.5625 21.11 -64.5625 19.75 C-65.366875 19.481875 -66.17125 19.21375 -67 18.9375 C-67.845625 18.545625 -68.69125 18.15375 -69.5625 17.75 C-69.8925 16.76 -70.2225 15.77 -70.5625 14.75 C-64.9738624 12.8871208 -60.88647144 13.47091228 -55.625 15.875 C-50.47801749 18.12926799 -47.76553034 17.67704827 -42.5625 15.75 C-44.5425 15.09 -46.5225 14.43 -48.5625 13.75 C-46.5625 11.75 -46.5625 11.75 -43.9296875 11.6875 C-42.20105469 11.7184375 -42.20105469 11.7184375 -40.4375 11.75 C-29.48224854 11.52789657 -19.65952185 6.22554437 -9.86816406 1.765625 C-6.29680951 0.19247433 -3.85611506 -0.38116459 0 0 Z M-30.625 38.75 C-31.72972656 38.935625 -32.83445313 39.12125 -33.97265625 39.3125 C-35.25462891 39.5290625 -35.25462891 39.5290625 -36.5625 39.75 C-36.5625 40.08 -36.5625 40.41 -36.5625 40.75 C-33.9225 40.75 -31.2825 40.75 -28.5625 40.75 C-27.9025 43.72 -27.2425 46.69 -26.5625 49.75 C-28.87369792 49.9453125 -31.18489583 50.140625 -33.49609375 50.3359375 C-34.51896484 50.54089844 -34.51896484 50.54089844 -35.5625 50.75 C-35.8925 51.41 -36.2225 52.07 -36.5625 52.75 C-33.2625 52.75 -29.9625 52.75 -26.5625 52.75 C-26.5625 53.41 -26.5625 54.07 -26.5625 54.75 C-23.4879644 53.9736068 -23.4879644 53.9736068 -21.5625 51.75 C-19.5825 52.41 -17.6025 53.07 -15.5625 53.75 C-15.5625 52.43 -15.5625 51.11 -15.5625 49.75 C-17.05301536 48.18159172 -17.05301536 48.18159172 -19 46.875 C-21.87105584 44.60593974 -22.47597036 44.06150671 -23.5 40.375 C-23.520625 39.50875 -23.54125 38.6425 -23.5625 37.75 C-25.91150708 37.75 -28.3198739 38.36176824 -30.625 38.75 Z M-57.5625 40.75 C-57.8925 41.74 -58.2225 42.73 -58.5625 43.75 C-57.2425 43.75 -55.9225 43.75 -54.5625 43.75 C-54.5625 43.09 -54.5625 42.43 -54.5625 41.75 C-55.5525 41.42 -56.5425 41.09 -57.5625 40.75 Z M-48.5625 43.75 C-48.2325 44.74 -47.9025 45.73 -47.5625 46.75 C-47.2325 45.76 -46.9025 44.77 -46.5625 43.75 C-47.2225 43.75 -47.8825 43.75 -48.5625 43.75 Z " fill="#040304" transform="translate(205.5625,232.25)"/>
<path d="M0 0 C7.26 0 14.52 0 22 0 C22.33 0.66 22.66 1.32 23 2 C23.52722656 1.67902344 24.05445313 1.35804688 24.59765625 1.02734375 C29.44580074 -1.0459278 34.8468499 -0.62699925 40 0 C43.93163952 2.49507893 44.71247895 4.01164639 46 8.4375 C46 12.50163972 44.9483353 14.49299646 43 18 C43 21.76687864 43.23537317 22.91190305 45 26 C46.52701425 21.93100993 48.0524633 17.86148055 49.5703125 13.7890625 C50.08854167 12.40104167 50.60677083 11.01302083 51.125 9.625 C51.38925781 8.91472656 51.65351563 8.20445312 51.92578125 7.47265625 C53.88721805 2.22556391 53.88721805 2.22556391 55 0 C57.97 0 60.94 0 64 0 C67.90981291 5.88114715 69.13602138 11.328723 70.25 18.25 C70.42273438 19.24257813 70.59546875 20.23515625 70.7734375 21.2578125 C72 28.44196429 72 28.44196429 72 32 C69.03 32 66.06 32 63 32 C63 31.34 63 30.68 63 30 C62.34 30 61.68 30 61 30 C61 29.01 61 28.02 61 27 C59.00016466 27.79117904 59.00016466 27.79117904 57 29 C56.505 30.485 56.505 30.485 56 32 C53.03 32 50.06 32 47 32 C47 31.34 47 30.68 47 30 C46.443125 30.144375 45.88625 30.28875 45.3125 30.4375 C42.88615805 31.02769128 40.45093655 31.523429 38 32 C35.525 28.04 35.525 28.04 33 24 C32.855625 25.134375 32.71125 26.26875 32.5625 27.4375 C32 31 32 31 31 32 C28.66702567 32.04092937 26.33294775 32.04241723 24 32 C24 31.34 24 30.68 24 30 C23.34 30 22.68 30 22 30 C22.33 23.07 22.66 16.14 23 9 C20.69 9 18.38 9 16 9 C16 16.59 16 24.18 16 32 C13.36 32 10.72 32 8 32 C8 31.34 8 30.68 8 30 C7.34 30 6.68 30 6 30 C6 23.4 6 16.8 6 10 C4.68 10.33 3.36 10.66 2 11 C1.34 10.34 0.68 9.68 0 9 C0 6.03 0 3.06 0 0 Z M33 9 C33.33 9.99 33.66 10.98 34 12 C34.66 11.01 35.32 10.02 36 9 C35.01 9 34.02 9 33 9 Z " fill="#0A94AD" transform="translate(214,262)"/>
<path d="M0 0 C5.53846154 0.61538462 5.53846154 0.61538462 7.875 2.5625 C8.431875 3.2740625 8.431875 3.2740625 9 4 C9.33 3.01 9.66 2.02 10 1 C16.6 1 23.2 1 30 1 C30 1.66 30 2.32 30 3 C30.66 3 31.32 3 32 3 C32 2.34 32 1.68 32 1 C34.64 1 37.28 1 40 1 C41.17426264 3.34852528 41.11508173 4.73774065 41.09765625 7.3515625 C41.09443359 8.20234375 41.09121094 9.053125 41.08789062 9.9296875 C41.07532227 11.26386719 41.07532227 11.26386719 41.0625 12.625 C41.05798828 13.5221875 41.05347656 14.419375 41.04882812 15.34375 C41.03702591 17.56256648 41.02056155 19.78125018 41 22 C42.918125 21.938125 42.918125 21.938125 44.875 21.875 C47.0546875 21.8046875 47.0546875 21.8046875 49 22 C51 24 51 24 51.1953125 26.1640625 C51.17210937 26.97617187 51.14890625 27.78828125 51.125 28.625 C51.10695313 29.44226563 51.08890625 30.25953125 51.0703125 31.1015625 C51.04710937 31.72804688 51.02390625 32.35453125 51 33 C37.33333333 33 23.66666667 33 10 33 C10 32.34 10 31.68 10 31 C9.34 31 8.68 31 8 31 C8 24.4 8 17.8 8 11 C5.69 18.26 3.38 25.52 1 33 C-7 33 -7 33 -8.91333008 31.81958008 C-10.28068594 29.53000397 -10.83060305 27.49757212 -11.38671875 24.88671875 C-11.7105957 23.3852832 -11.7105957 23.3852832 -12.04101562 21.85351562 C-12.25435547 20.80873047 -12.46769531 19.76394531 -12.6875 18.6875 C-12.91244141 17.65431641 -13.13738281 16.62113281 -13.36914062 15.55664062 C-14.4050906 10.64768618 -15.32144403 6.04754005 -15 1 C-11.6875 0.75 -11.6875 0.75 -8 1 C-5.24902436 3.56757726 -4.93563233 5.25747068 -4 9 C-2.68 6.03 -1.36 3.06 0 0 Z M19 11 C19 11.33 19 11.66 19 12 C21.64 12 24.28 12 27 12 C27.33 14.64 27.66 17.28 28 20 C25.03 20.66 22.06 21.32 19 22 C19 22.66 19 23.32 19 24 C22.3 24 25.6 24 29 24 C29 24.66 29 25.32 29 26 C29.66 26 30.32 26 31 26 C31 20.72 31 15.44 31 10 C24.81932671 9.98297167 24.81932671 9.98297167 19 11 Z " fill="#0A90AB" transform="translate(299,261)"/>
<path d="M0 0 C0.78503906 0.06703125 1.57007813 0.1340625 2.37890625 0.203125 C4.4375 0.75 4.4375 0.75 6.4375 3.75 C3.91793257 5.02339482 1.39691351 6.29376642 -1.125 7.5625 C-1.82947266 7.91892578 -2.53394531 8.27535156 -3.25976562 8.64257812 C-6.60400794 10.32240491 -9.93073646 11.92406774 -13.40234375 13.32421875 C-16.49912408 14.48313575 -16.49912408 14.48313575 -18.0859375 16.34765625 C-20.42883463 18.57278871 -23.05593743 18.6382826 -26.1875 19.1875 C-31.22000626 20.17859562 -35.42813158 21.40805065 -40.015625 23.6328125 C-43.50102078 25.16168243 -47.0655719 26.3383741 -50.6875 27.5 C-51.35700684 27.72284668 -52.02651367 27.94569336 -52.71630859 28.17529297 C-55.90019446 29.17531436 -58.55169711 29.75025691 -61.89892578 29.6706543 C-65.81845782 29.75554354 -68.41703863 30.53709241 -72.046875 31.97265625 C-73.22894531 32.42833984 -74.41101563 32.88402344 -75.62890625 33.35351562 C-76.84449219 33.83498047 -78.06007813 34.31644531 -79.3125 34.8125 C-81.74085519 35.77276093 -84.17319741 36.7195729 -86.609375 37.66015625 C-87.68026367 38.08433838 -88.75115234 38.50852051 -89.85449219 38.94555664 C-92.5625 39.75 -92.5625 39.75 -95.5625 38.75 C-85.42546117 33.86058021 -75.07874492 29.73932748 -64.5625 25.75 C-64.5625 25.09 -64.5625 24.43 -64.5625 23.75 C-64.5625 22.43 -64.5625 21.11 -64.5625 19.75 C-65.366875 19.481875 -66.17125 19.21375 -67 18.9375 C-67.845625 18.545625 -68.69125 18.15375 -69.5625 17.75 C-69.8925 16.76 -70.2225 15.77 -70.5625 14.75 C-64.9738624 12.8871208 -60.88647144 13.47091228 -55.625 15.875 C-50.47801749 18.12926799 -47.76553034 17.67704827 -42.5625 15.75 C-44.5425 15.09 -46.5225 14.43 -48.5625 13.75 C-46.5625 11.75 -46.5625 11.75 -43.9296875 11.6875 C-42.20105469 11.7184375 -42.20105469 11.7184375 -40.4375 11.75 C-29.48224854 11.52789657 -19.65952185 6.22554437 -9.86816406 1.765625 C-6.29680951 0.19247433 -3.85611506 -0.38116459 0 0 Z " fill="#4CAEDE" transform="translate(205.5625,232.25)"/>
<path d="M0 0 C2.875 0.3125 2.875 0.3125 6 1 C6.66 1.99 7.32 2.98 8 4 C7.67 4.99 7.34 5.98 7 7 C6.34 7 5.68 7 5 7 C5 8.32 5 9.64 5 11 C4.34 11 3.68 11 3 11 C3.04125 12.03125 3.0825 13.0625 3.125 14.125 C3.00187965 17.94173083 2.23868755 20.42966529 1 24 C0.56003236 26.66397991 0.27806222 29.31206524 0 32 C-6.0546875 32.1953125 -6.0546875 32.1953125 -8 32 C-10.39298955 29.60701045 -10.57711777 28.25759135 -11.2890625 24.984375 C-11.50820313 23.98019531 -11.72734375 22.97601563 -11.953125 21.94140625 C-12.17484375 20.88824219 -12.3965625 19.83507812 -12.625 18.75 C-12.85445313 17.71230469 -13.08390625 16.67460937 -13.3203125 15.60546875 C-14.37761232 10.67769639 -15.3323292 6.07239305 -15 1 C-11.6875 0.75 -11.6875 0.75 -8 1 C-5.24902436 3.56757726 -4.93563233 5.25747068 -4 9 C-2.68 6.03 -1.36 3.06 0 0 Z " fill="#0396B0" transform="translate(299,261)"/>
<path d="M0 0 C0.78503906 0.06703125 1.57007813 0.1340625 2.37890625 0.203125 C4.4375 0.75 4.4375 0.75 6.4375 3.75 C3.91793257 5.02339482 1.39691351 6.29376642 -1.125 7.5625 C-1.82947266 7.91892578 -2.53394531 8.27535156 -3.25976562 8.64257812 C-6.64507635 10.34303374 -10.01645015 11.96100704 -13.52734375 13.38671875 C-16.65445954 14.40669759 -16.65445954 14.40669759 -17.5625 16.75 C-20.8625 16.75 -24.1625 16.75 -27.5625 16.75 C-27.8925 17.41 -28.2225 18.07 -28.5625 18.75 C-32.1925 18.75 -35.8225 18.75 -39.5625 18.75 C-40.2225 17.43 -40.8825 16.11 -41.5625 14.75 C-45.12456661 13.93129815 -45.12456661 13.93129815 -48.5625 13.75 C-46.5625 11.75 -46.5625 11.75 -43.9296875 11.6875 C-42.20105469 11.7184375 -42.20105469 11.7184375 -40.4375 11.75 C-29.48224854 11.52789657 -19.65952185 6.22554437 -9.86816406 1.765625 C-6.29680951 0.19247433 -3.85611506 -0.38116459 0 0 Z " fill="#4EABD9" transform="translate(205.5625,232.25)"/>
<path d="M0 0 C6.6 0 13.2 0 20 0 C20 2.31 20 4.62 20 7 C13.565 7.495 13.565 7.495 7 8 C7 9.32 7 10.64 7 12 C9.64 12 12.28 12 15 12 C15.33 13.98 15.66 15.96 16 18 C15.28972656 18.18175781 14.57945312 18.36351562 13.84765625 18.55078125 C12.92855469 18.80214844 12.00945312 19.05351562 11.0625 19.3125 C9.68771484 19.67794922 9.68771484 19.67794922 8.28515625 20.05078125 C7.53105469 20.36402344 6.77695312 20.67726563 6 21 C5.67 21.99 5.34 22.98 5 24 C4.34 24 3.68 24 3 24 C2.875 18.25 2.875 18.25 4 16 C2.68 16.33 1.36 16.66 0 17 C0 11.39 0 5.78 0 0 Z " fill="#0D93AC" transform="translate(309,262)"/>
<path d="M0 0 C2.31 0 4.62 0 7 0 C7.33 6.93 7.66 13.86 8 21 C10.64 21.33 13.28 21.66 16 22 C16 24.31 16 26.62 16 29 C10.72 29 5.44 29 0 29 C-0.1939619 24.54186025 -0.38046929 20.08362883 -0.5625 15.625 C-0.61857422 14.35398437 -0.67464844 13.08296875 -0.73242188 11.7734375 C-0.80493164 9.95585937 -0.80493164 9.95585937 -0.87890625 8.1015625 C-0.9260376 6.98088379 -0.97316895 5.86020508 -1.02172852 4.70556641 C-1 2 -1 2 0 0 Z " fill="#0496B1" transform="translate(331,262)"/>
<path d="M0 0 C4.95 0 9.9 0 15 0 C15 1.32 15 2.64 15 4 C12.36 4.66 9.72 5.32 7 6 C6.67 8.31 6.34 10.62 6 13 C8.97 13.495 8.97 13.495 12 14 C11.34 15.65 10.68 17.3 10 19 C8.35 18.67 6.7 18.34 5 18 C5 21.63 5 25.26 5 29 C3.02 28.67 1.04 28.34 -1 28 C-1.02929977 24.64585201 -1.0468989 21.29173747 -1.0625 17.9375 C-1.07087891 16.99455078 -1.07925781 16.05160156 -1.08789062 15.08007812 C-1.09111328 14.15517578 -1.09433594 13.23027344 -1.09765625 12.27734375 C-1.10289307 11.43421631 -1.10812988 10.59108887 -1.11352539 9.72241211 C-0.97761754 6.46325411 -0.46131512 3.22920581 0 0 Z " fill="#0895AF" transform="translate(238,263)"/>
<path d="M0 0 C0 2.64 0 5.28 0 8 C0.66 8.33 1.32 8.66 2 9 C1.34 13.29 0.68 17.58 0 22 C-3.96 22.495 -3.96 22.495 -8 23 C-8 22.34 -8 21.68 -8 21 C-9.98 21.33 -11.96 21.66 -14 22 C-14 20.68 -14 19.36 -14 18 C-13.01 17.34 -12.02 16.68 -11 16 C-10.65977214 14.00116131 -10.32670903 12.00109278 -10 10 C-8.4375 8.25 -8.4375 8.25 -7 7 C-7 6.34 -7 5.68 -7 5 C-7 3.68 -7 2.36 -7 1 C-4.53721199 -0.231394 -2.7204945 -0.07159196 0 0 Z " fill="#0496B2" transform="translate(277,263)"/>
<path d="M0 0 C1.70840281 1.63412443 2.93453047 2.86906094 4 5 C4.721875 4.34 5.44375 3.68 6.1875 3 C9.21597933 0.8464147 10.39703406 0.58823246 14 1 C14 1.66 14 2.32 14 3 C16.31 3 18.62 3 21 3 C21.625 4.875 21.625 4.875 22 7 C21.34 7.66 20.68 8.32 20 9 C20 8.01 20 7.02 20 6 C18.00016466 6.79117904 18.00016466 6.79117904 16 8 C15.67 8.99 15.34 9.98 15 11 C12.03 11 9.06 11 6 11 C6 10.34 6 9.68 6 9 C5.443125 9.144375 4.88625 9.28875 4.3125 9.4375 C1.88615805 10.02769128 -0.54906345 10.523429 -3 11 C-4.32 9.02 -5.64 7.04 -7 5 C-6.34 4.67 -5.68 4.34 -5 4 C-4.67 5.32 -4.34 6.64 -4 8 C-2.35 7.34 -0.7 6.68 1 6 C0.67 4.02 0.34 2.04 0 0 Z " fill="#0796AF" transform="translate(255,283)"/>
<path d="M0 0 C2 2 2 2 2.22705078 3.97119141 C2.21134033 5.1494751 2.21134033 5.1494751 2.1953125 6.3515625 C2.18564453 7.62773437 2.18564453 7.62773437 2.17578125 8.9296875 C2.15902344 9.81914062 2.14226562 10.70859375 2.125 11.625 C2.11597656 12.5221875 2.10695313 13.419375 2.09765625 14.34375 C2.0740497 16.56276586 2.0411231 18.78125077 2 21 C3.918125 20.938125 3.918125 20.938125 5.875 20.875 C8.0546875 20.8046875 8.0546875 20.8046875 10 21 C12 23 12 23 12 32 C5.73 32 -0.54 32 -7 32 C-8.20029908 29.59940183 -8.11459743 28.10639351 -8.09765625 25.4296875 C-8.09443359 24.53378906 -8.09121094 23.63789063 -8.08789062 22.71484375 C-8.07951172 21.77769531 -8.07113281 20.84054687 -8.0625 19.875 C-8.05798828 18.93011719 -8.05347656 17.98523438 -8.04882812 17.01171875 C-8.03702357 14.67441613 -8.02055759 12.33723939 -8 10 C-7.67 10 -7.34 10 -7 10 C-7 16.27 -7 22.54 -7 29 C-1.72 29 3.56 29 9 29 C9 26.69 9 24.38 9 22 C7.700625 22.020625 6.40125 22.04125 5.0625 22.0625 C3.70834367 22.08399454 2.35243917 22.07148199 1 22 C0 21 0 21 -0.11352539 18.95874023 C-0.10828857 18.08419189 -0.10305176 17.20964355 -0.09765625 16.30859375 C-0.09443359 15.36435547 -0.09121094 14.42011719 -0.08789062 13.44726562 C-0.07951172 12.45404297 -0.07113281 11.46082031 -0.0625 10.4375 C-0.05798828 9.44041016 -0.05347656 8.44332031 -0.04882812 7.41601562 C-0.03700007 4.94395151 -0.02051849 2.47200482 0 0 Z " fill="#267E8F" transform="translate(338,262)"/>
<path d="M0 0 C1.51400391 0.01740234 1.51400391 0.01740234 3.05859375 0.03515625 C4.07050781 0.04417969 5.08242188 0.05320312 6.125 0.0625 C7.29869141 0.07990234 7.29869141 0.07990234 8.49609375 0.09765625 C8.49609375 0.75765625 8.49609375 1.41765625 8.49609375 2.09765625 C9.15609375 2.09765625 9.81609375 2.09765625 10.49609375 2.09765625 C10.49609375 3.74765625 10.49609375 5.39765625 10.49609375 7.09765625 C7.37111312 7.12661601 4.24616685 7.14444108 1.12109375 7.16015625 C0.23164063 7.16853516 -0.6578125 7.17691406 -1.57421875 7.18554688 C-2.85039062 7.19038086 -2.85039062 7.19038086 -4.15234375 7.1953125 C-5.33062744 7.20316772 -5.33062744 7.20316772 -6.53271484 7.21118164 C-8.50390625 7.09765625 -8.50390625 7.09765625 -10.50390625 6.09765625 C-9.00041228 3.09066832 -6.46201145 2.51508166 -3.50390625 1.09765625 C-2.50390625 0.09765625 -2.50390625 0.09765625 0 0 Z " fill="#0497B2" transform="translate(319.50390625,284.90234375)"/>
<path d="M0 0 C4.13576056 6.20364085 2.32902988 15.85646442 1 23 C-0.65 23 -2.3 23 -4 23 C-5.49106457 20.01787087 -5.11941467 17.28390342 -5 14 C-4.67 13.67 -4.34 13.34 -4 13 C-3.79231771 11.52603261 -3.63283983 10.0450874 -3.5 8.5625 C-3.10958904 4.21917808 -3.10958904 4.21917808 -2 2 C-1.34 2 -0.68 2 0 2 C0 1.34 0 0.68 0 0 Z " fill="#0999B4" transform="translate(225,268)"/>
<path d="M0 0 C2 2 2 2 2.125 5.625 C2.08375 6.73875 2.0425 7.8525 2 9 C-0.31 9 -2.62 9 -5 9 C-5 16.59 -5 24.18 -5 32 C-7.64 32 -10.28 32 -13 32 C-13 31.34 -13 30.68 -13 30 C-11.02 30 -9.04 30 -7 30 C-7 22.08 -7 14.16 -7 6 C-5.02 5.34 -3.04 4.68 -1 4 C-0.03122943 1.96756452 -0.03122943 1.96756452 0 0 Z " fill="#1E7285" transform="translate(235,262)"/>
<path d="M0 0 C5.28 0 10.56 0 16 0 C16.33 1.65 16.66 3.3 17 5 C16.20335937 5.02578125 15.40671875 5.0515625 14.5859375 5.078125 C8.18240118 5.42089337 3.92103622 5.76244103 -1 10 C-0.67 6.7 -0.34 3.4 0 0 Z " fill="#0398B2" transform="translate(311,263)"/>
<path d="M0 0 C0.66 0 1.32 0 2 0 C2 2.31 2 4.62 2 7 C-0.31 7.33 -2.62 7.66 -5 8 C-4.01 8.33 -3.02 8.66 -2 9 C-1.26953125 10.84765625 -1.26953125 10.84765625 -0.8125 13.0625 C-0.65394531 13.79597656 -0.49539063 14.52945312 -0.33203125 15.28515625 C-0.22246094 15.85105469 -0.11289062 16.41695313 0 17 C-3.08888522 19.05925681 -3.70935927 19.2390374 -7.1875 19.125 C-8.445625 19.08375 -9.70375 19.0425 -11 19 C-10.67 18.34 -10.34 17.68 -10 17 C-7.67843403 16.59270772 -5.3431213 16.25561323 -3 16 C-3.33 14.02 -3.66 12.04 -4 10 C-6.64 10 -9.28 10 -12 10 C-12 8.68 -12 7.36 -12 6 C-7.61414671 5.29826347 -3.44209357 4.89165625 1 5 C0.67 3.35 0.34 1.7 0 0 Z " fill="#247B8F" transform="translate(328,264)"/>
<path d="M0 0 C0.33 0 0.66 0 1 0 C1.52382822 6.66945574 -0.38440162 12.1601357 -2.5 18.4375 C-2.83386719 19.45521484 -3.16773438 20.47292969 -3.51171875 21.52148438 C-4.33200798 24.01750733 -5.16161493 26.51000909 -6 29 C-8.64 29 -11.28 29 -14 29 C-14 28.67 -14 28.34 -14 28 C-11.69 28 -9.38 28 -7 28 C-7.04125 26.80375 -7.0825 25.6075 -7.125 24.375 C-7.13174273 20.53838575 -6.30968001 17.62088001 -5 14 C-4.62468554 11.67305036 -4.28082798 9.34023315 -4 7 C-3.34 7 -2.68 7 -2 7 C-2 5.68 -2 4.36 -2 3 C-1.34 3 -0.68 3 0 3 C0 2.01 0 1.02 0 0 Z " fill="#216F7E" transform="translate(306,265)"/>
<path d="M0 0 C2.875 0.3125 2.875 0.3125 6 1 C6.66 1.99 7.32 2.98 8 4 C7.67 4.99 7.34 5.98 7 7 C6.34 7 5.68 7 5 7 C4.67 8.32 4.34 9.64 4 11 C4.33 8.03 4.66 5.06 5 2 C1.88794071 3.98512949 1.88794071 3.98512949 0.25 7.1875 C0.1675 7.785625 0.085 8.38375 0 9 C-0.66 9 -1.32 9 -2 9 C-2.12375 9.94875 -2.2475 10.8975 -2.375 11.875 C-3 15 -3 15 -5 17 C-5.52923572 14.87707704 -6.04815377 12.75157949 -6.5625 10.625 C-6.85253906 9.44164062 -7.14257812 8.25828125 -7.44140625 7.0390625 C-8 4 -8 4 -7 2 C-6.01 4.31 -5.02 6.62 -4 9 C-2.68 6.03 -1.36 3.06 0 0 Z " fill="#218FA1" transform="translate(299,261)"/>
<path d="M0 0 C0.99 0.66 1.98 1.32 3 2 C1.46811035 1.93123657 1.46811035 1.93123657 -0.09472656 1.86108398 C-4.11152592 2.00396713 -6.76815409 2.75292819 -10.484375 4.22265625 C-11.66644531 4.67833984 -12.84851563 5.13402344 -14.06640625 5.60351562 C-15.28199219 6.08498047 -16.49757813 6.56644531 -17.75 7.0625 C-20.17835519 8.02276093 -22.61069741 8.9695729 -25.046875 9.91015625 C-26.65320801 10.54642944 -26.65320801 10.54642944 -28.29199219 11.19555664 C-31 12 -31 12 -34 11 C-26.93575398 7.58884011 -19.80899381 4.40921423 -12.5 1.5625 C-11.83033203 1.29163574 -11.16066406 1.02077148 -10.47070312 0.74169922 C-6.59450497 -0.73285652 -3.95859635 -1.40084131 0 0 Z " fill="#5D98B5" transform="translate(144,260)"/>
<path d="M0 0 C2.97 0 5.94 0 9 0 C8.67 0.66 8.34 1.32 8 2 C5.69 2 3.38 2 1 2 C1.66 4.31 2.32 6.62 3 9 C2.01 9 1.02 9 0 9 C-0.28875 9.9075 -0.5775 10.815 -0.875 11.75 C-1.76531776 14.32202908 -2.71494413 16.61346766 -4 19 C-4.66 19 -5.32 19 -6 19 C-6.33 20.65 -6.66 22.3 -7 24 C-8.14986687 20.55039938 -7.84899294 19.89860886 -6.6015625 16.62109375 C-6.28703125 15.78255859 -5.9725 14.94402344 -5.6484375 14.08007812 C-5.14183594 12.77200195 -5.14183594 12.77200195 -4.625 11.4375 C-4.295 10.56158203 -3.965 9.68566406 -3.625 8.78320312 C-1.23028274 2.46056548 -1.23028274 2.46056548 0 0 Z " fill="#1890A6" transform="translate(269,262)"/>
<path d="M0 0 C2.31 0 4.62 0 7 0 C8.31626692 3.61973402 9 6.09567131 9 10 C8.34 10 7.68 10 7 10 C6.67 9.01 6.34 8.02 6 7 C5.01 7.495 5.01 7.495 4 8 C3.53476937 9.89533342 3.53476937 9.89533342 3.375 12.0625 C3.25125 13.361875 3.1275 14.66125 3 16 C2.67 16 2.34 16 2 16 C0.80911014 10.61972975 -0.2919519 5.54708616 0 0 Z " fill="#1593A7" transform="translate(284,262)"/>
<path d="M0 0 C0.33 1.32 0.66 2.64 1 4 C-1.85478326 5.90318884 -3.41941308 6.4619099 -6.6875 7.125 C-7.49574219 7.29257813 -8.30398437 7.46015625 -9.13671875 7.6328125 C-9.75160156 7.75398437 -10.36648437 7.87515625 -11 8 C-12 5 -12 5 -11 2 C-3.9360873 -1.73187841 -3.9360873 -1.73187841 0 0 Z " fill="#46AFE3" transform="translate(201,236)"/>
<path d="M0 0 C0.66 0 1.32 0 2 0 C2.144375 1.216875 2.28875 2.43375 2.4375 3.6875 C2.82780953 6.82670377 3.32351856 9.9075134 4 13 C5.98 12.67 7.96 12.34 10 12 C10.12375 11.113125 10.2475 10.22625 10.375 9.3125 C10.94412736 6.29612498 11.76614436 3.79673946 13 1 C14.15837573 4.47512718 13.77265943 6.13670286 13.0625 9.6875 C12.77052734 11.17830078 12.77052734 11.17830078 12.47265625 12.69921875 C12.31667969 13.45847656 12.16070312 14.21773438 12 15 C5.9453125 15.1953125 5.9453125 15.1953125 4 15 C1.73625389 12.73625389 1.51648574 11.68987631 0.875 8.625 C0.70742188 7.85414063 0.53984375 7.08328125 0.3671875 6.2890625 C0 4 0 4 0 0 Z " fill="#138BA3" transform="translate(287,278)"/>
<path d="M0 0 C7.17161623 5.81320424 6.89873584 21.35831539 8 30 C5.03 30 2.06 30 -1 30 C-1 29.34 -1 28.68 -1 28 C1.31 28 3.62 28 6 28 C5.18881269 24.08306027 4.37582285 20.16649681 3.5625 16.25 C3.33240234 15.13882812 3.10230469 14.02765625 2.86523438 12.8828125 C2.64287109 11.81289063 2.42050781 10.74296875 2.19140625 9.640625 C1.98717041 8.65610352 1.78293457 7.67158203 1.57250977 6.65722656 C1.09139371 4.42419154 0.57119909 2.21138926 0 0 Z " fill="#227A8B" transform="translate(278,264)"/>
<path d="M0 0 C0.66 0 1.32 0 2 0 C2 0.66 2 1.32 2 2 C2.66 2 3.32 2 4 2 C3.67 4.31 3.34 6.62 3 9 C-1.95 9.66 -6.9 10.32 -12 11 C-12 9.68 -12 8.36 -12 7 C-6.06 6.505 -6.06 6.505 0 6 C1.33333333 3 1.33333333 3 0 0 Z " fill="#141112" transform="translate(178,262)"/>
<path d="M0 0 C2.31 0 4.62 0 7 0 C7.33 7.26 7.66 14.52 8 22 C7.01 22 6.02 22 5 22 C5 16.06 5 10.12 5 4 C3.68 3.67 2.36 3.34 1 3 C1 4.98 1 6.96 1 9 C0.01 9.495 0.01 9.495 -1 10 C-1.125 2.25 -1.125 2.25 0 0 Z " fill="#0F90A6" transform="translate(331,262)"/>
<path d="M0 0 C0.66 0 1.32 0 2 0 C2 2.31 2 4.62 2 7 C8.93 7.33 15.86 7.66 23 8 C22.67 8.66 22.34 9.32 22 10 C15.4 10 8.8 10 2 10 C2 9.34 2 8.68 2 8 C1.34 8 0.68 8 0 8 C0 5.36 0 2.72 0 0 Z " fill="#1A7384" transform="translate(307,284)"/>
<path d="M0 0 C6.93 0 13.86 0 21 0 C21 0.33 21 0.66 21 1 C14.4 1 7.8 1 1 1 C1 3.31 1 5.62 1 8 C3.31 8 5.62 8 8 8 C7.67 11.96 7.34 15.92 7 20 C6.67 20 6.34 20 6 20 C6 16.7 6 13.4 6 10 C4.68 10.33 3.36 10.66 2 11 C1.34 10.34 0.68 9.68 0 9 C0 6.03 0 3.06 0 0 Z " fill="#1593A8" transform="translate(214,262)"/>
<path d="M0 0 C0.99 0 1.98 0 3 0 C2.85957123 1.64630328 2.71250671 3.29204179 2.5625 4.9375 C2.48128906 5.85402344 2.40007812 6.77054687 2.31640625 7.71484375 C2 10 2 10 1 11 C-1.33297433 11.04092937 -3.66705225 11.04241723 -6 11 C-6 10.34 -6 9.68 -6 9 C-6.66 9 -7.32 9 -8 9 C-8 6.69 -8 4.38 -8 2 C-7.67 2 -7.34 2 -7 2 C-7 3.98 -7 5.96 -7 8 C-4.03 8.495 -4.03 8.495 -1 9 C-1.020625 7.700625 -1.04125 6.40125 -1.0625 5.0625 C-1.08399454 3.70834367 -1.07148199 2.35243917 -1 1 C-0.67 0.67 -0.34 0.34 0 0 Z " fill="#1C7B8D" transform="translate(244,283)"/>
<path d="M0 0 C2.64 0 5.28 0 8 0 C8.625 1.875 8.625 1.875 9 4 C8.34 4.66 7.68 5.32 7 6 C7 5.01 7 4.02 7 3 C5.00016466 3.79117904 5.00016466 3.79117904 3 5 C2.67 5.99 2.34 6.98 2 8 C-0.97 8 -3.94 8 -7 8 C-7 7.67 -7 7.34 -7 7 C-4.69 7 -2.38 7 0 7 C0 4.69 0 2.38 0 0 Z " fill="#1E7689" transform="translate(268,286)"/>
<path d="M0 0 C-3.27185553 1.07310858 -5.42947592 0.89263102 -8.75 0.0625 C-9.94882813 -0.22947266 -9.94882813 -0.22947266 -11.171875 -0.52734375 C-11.77515625 -0.68332031 -12.3784375 -0.83929688 -13 -1 C-13.33 -0.01 -13.66 0.98 -14 2 C-16.4375 1.1875 -16.4375 1.1875 -19 0 C-19.33 -0.99 -19.66 -1.98 -20 -3 C-12.51921698 -5.49359434 -6.84038973 -3.08299255 0 0 Z " fill="#54A8CB" transform="translate(155,250)"/>
<path d="M0 0 C1.98 0 3.96 0 6 0 C5.67 2.64 5.34 5.28 5 8 C2.125 8.125 2.125 8.125 -1 8 C-1.66 7.34 -2.32 6.68 -3 6 C-2.34 6 -1.68 6 -1 6 C-0.67 4.02 -0.34 2.04 0 0 Z " fill="#46AFE3" transform="translate(181,241)"/>
<path d="M0 0 C1.5625 1.5625 1.5625 1.5625 3 4 C2.93044263 7.89521249 2.54011724 10.21983066 0.3125 13.4375 C-2.62436479 15.4218681 -4.526511 15.31577173 -8 15 C-7.21625 14.38125 -6.4325 13.7625 -5.625 13.125 C-2.15368729 10.57679095 -2.15368729 10.57679095 -0.5859375 6.8359375 C-0.51632813 6.02382813 -0.44671875 5.21171875 -0.375 4.375 C-0.26285156 3.14910156 -0.26285156 3.14910156 -0.1484375 1.8984375 C-0.09945312 1.27195312 -0.05046875 0.64546875 0 0 Z " fill="#222222" transform="translate(199,279)"/>
<path d="M0 0 C0.33 1.32 0.66 2.64 1 4 C-2.14591933 6.80045623 -4.067064 7.35261589 -8.25 7.1875 C-9.14203125 7.16042969 -10.0340625 7.13335937 -10.953125 7.10546875 C-11.62859375 7.07066406 -12.3040625 7.03585937 -13 7 C-13 6.01 -13 5.02 -13 4 C-11.783125 3.896875 -10.56625 3.79375 -9.3125 3.6875 C-5.58930552 3.23780688 -3.08337005 2.21617222 0 0 Z " fill="#141313" transform="translate(156,287)"/>
<path d="M0 0 C0.99 0 1.98 0 3 0 C5.29013653 3.4352048 5.17842973 4.985331 5 9 C1.78548731 10.60725635 -1.43612536 10.05748185 -5 10 C-2.94766315 7.7522025 -1.99332739 6.9977758 1 6 C0.67 4.02 0.34 2.04 0 0 Z " fill="#131212" transform="translate(174,273)"/>
<path d="M0 0 C2.892153 2.33238145 3.92971633 3.74697879 4.9375 7.375 C5.02225931 12.29104012 3.57587089 15.24903234 0.3125 18.875 C-0.3371875 19.431875 -0.3371875 19.431875 -1 20 C-1.20086443 16.28400809 -1.1519437 15.22791555 1 12 C1.45139459 9.9507906 1.45139459 9.9507906 1.625 7.8125 C1.74875 6.554375 1.8725 5.29625 2 4 C1.34 4 0.68 4 0 4 C0 2.68 0 1.36 0 0 Z " fill="#227789" transform="translate(255,263)"/>
<path d="M0 0 C0.66 0 1.32 0 2 0 C2 0.99 2 1.98 2 3 C5.3 2.67 8.6 2.34 12 2 C8.43600422 4.37599719 4.91618826 5.15731805 0.8125 6.125 C0.06291016 6.30675781 -0.68667969 6.48851562 -1.45898438 6.67578125 C-3.30470781 7.12251686 -5.15219132 7.5619694 -7 8 C-7 7.34 -7 6.68 -7 6 C-5.5459375 5.62875 -5.5459375 5.62875 -4.0625 5.25 C-2.5465625 4.63125 -2.5465625 4.63125 -1 4 C-0.03122943 1.96756452 -0.03122943 1.96756452 0 0 Z " fill="#51A5CF" transform="translate(154,253)"/>
<path d="M0 0 C0 0.99 0 1.98 0 3 C-6.93 3 -13.86 3 -21 3 C-20.67 2.34 -20.34 1.68 -20 1 C-17.04170322 0.832662 -14.08336635 0.66609948 -11.125 0.5 C-9.86236328 0.42845703 -9.86236328 0.42845703 -8.57421875 0.35546875 C-7.76855469 0.31035156 -6.96289062 0.26523437 -6.1328125 0.21875 C-5.38918457 0.17685547 -4.64555664 0.13496094 -3.87939453 0.09179688 C-2.58744125 0.0286929 -1.29349349 0 0 0 Z " fill="#151414" transform="translate(181,291)"/>
<path d="M0 0 C0.66 0 1.32 0 2 0 C2 0.66 2 1.32 2 2 C2.66 2 3.32 2 4 2 C4 3.65 4 5.3 4 7 C-1.94 7 -7.88 7 -14 7 C-14 6.67 -14 6.34 -14 6 C-9.71 6 -5.42 6 -1 6 C-0.67 4.02 -0.34 2.04 0 0 Z " fill="#0D84A0" transform="translate(326,285)"/>
<path d="M0 0 C2.89932357 2.39509338 3.50168276 4.31245243 4 8 C0.66248432 10.97992472 0.66248432 10.97992472 -2.0625 11.0625 C-5.01024064 9.44599707 -5.71944798 7.00929725 -7 4 C-6.34 4 -5.68 4 -5 4 C-4.67 5.32 -4.34 6.64 -4 8 C-2.35 7.34 -0.7 6.68 1 6 C0.67 4.02 0.34 2.04 0 0 Z " fill="#237788" transform="translate(255,283)"/>
<path d="M0 0 C-0.33 0.99 -0.66 1.98 -1 3 C-5.62 3.66 -10.24 4.32 -15 5 C-15 5.33 -15 5.66 -15 6 C-17.97 5.67 -20.94 5.34 -24 5 C-21.2021543 2.2021543 -18.4402033 2.62163195 -14.6875 2.5 C-9.58439855 2.30007438 -4.7839433 0 0 0 Z " fill="#5BA5CA" transform="translate(181,241)"/>
<path d="M0 0 C2.64 0.33 5.28 0.66 8 1 C8 1.33 8 1.66 8 2 C7.05898437 2.19335938 6.11796875 2.38671875 5.1484375 2.5859375 C3.90320313 2.84632813 2.65796875 3.10671875 1.375 3.375 C0.14523438 3.63023437 -1.08453125 3.88546875 -2.3515625 4.1484375 C-5.65820196 4.92022273 -8.80141713 5.86819375 -12 7 C-11.34 5.35 -10.68 3.7 -10 2 C-7.03 2.33 -4.06 2.66 -1 3 C-0.67 2.01 -0.34 1.02 0 0 Z " fill="#57AAD6" transform="translate(178,248)"/>
<path d="M0 0 C1.65 0 3.3 0 5 0 C4.609375 5.95703125 4.609375 5.95703125 4 8 C2.68 8.99 1.36 9.98 0 11 C0 7.37 0 3.74 0 0 Z " fill="#100D0F" transform="translate(144,270)"/>
<path d="M0 0 C0.66 0 1.32 0 2 0 C3.35439668 2.70879335 3.06501451 5.00933268 3 8 C1.35 8.33 -0.3 8.66 -2 9 C-1.34 6.03 -0.68 3.06 0 0 Z " fill="#212121" transform="translate(199,266)"/>
<path d="M0 0 C0.144375 0.598125 0.28875 1.19625 0.4375 1.8125 C0.8872439 3.56150404 1.42892341 5.28677023 2 7 C0.68 8.32 -0.64 9.64 -2 11 C-3.125 8.75 -3.125 8.75 -4 6 C-3.125 3.6875 -3.125 3.6875 -2 2 C-1.34 2 -0.68 2 0 2 C0 1.34 0 0.68 0 0 Z " fill="#0E0E0E" transform="translate(197,281)"/>
<path d="M0 0 C0.66 0 1.32 0 2 0 C2.33 0.66 2.66 1.32 3 2 C3.66 1.34 4.32 0.68 5 0 C5.33 2.64 5.66 5.28 6 8 C2.97984943 6.99328314 1.90683422 6.451644 0 4 C0 2.68 0 1.36 0 0 Z " fill="#1992A8" transform="translate(278,284)"/>
<path d="M0 0 C0.66 1.32 1.32 2.64 2 4 C-1.08888522 6.05925681 -1.70935927 6.2390374 -5.1875 6.125 C-7.0746875 6.063125 -7.0746875 6.063125 -9 6 C-8.67 5.34 -8.34 4.68 -8 4 C-5.35139573 3.40644386 -2.70802678 3.25790731 0 3 C0 2.01 0 1.02 0 0 Z " fill="#256C7F" transform="translate(326,277)"/>
<path d="M0 0 C1.32 0 2.64 0 4 0 C4.33 0.99 4.66 1.98 5 3 C4.01 3 3.02 3 2 3 C1.67 4.65 1.34 6.3 1 8 C0.34 8 -0.32 8 -1 8 C-1.04241723 5.66705225 -1.04092937 3.33297433 -1 1 C-0.67 0.67 -0.34 0.34 0 0 Z " fill="#288297" transform="translate(245,268)"/>
<path d="M0 0 C0.33 0 0.66 0 1 0 C1.33 2.97 1.66 5.94 2 9 C-0.97 9 -3.94 9 -7 9 C-7 8.34 -7 7.68 -7 7 C-4.69 7 -2.38 7 0 7 C0 4.69 0 2.38 0 0 Z " fill="#276B7B" transform="translate(284,285)"/>
<path d="M0 0 C0.99 0 1.98 0 3 0 C3.25 2.3125 3.25 2.3125 3 5 C0.95575462 6.97610386 -0.1176825 8 -3 8 C-3 7.01 -3 6.02 -3 5 C-2.34 5 -1.68 5 -1 5 C-0.67 3.35 -0.34 1.7 0 0 Z " fill="#0D8EA5" transform="translate(271,274)"/>
<path d="M0 0 C2.64 0 5.28 0 8 0 C7.67 3.96 7.34 7.92 7 12 C6.67 12 6.34 12 6 12 C6 8.7 6 5.4 6 2 C4.68 2.33 3.36 2.66 2 3 C1.34 2.01 0.68 1.02 0 0 Z " fill="#298093" transform="translate(214,270)"/>
<path d="M0 0 C2 2 2 2 2.125 5.625 C2.08375 6.73875 2.0425 7.8525 2 9 C-0.31 9 -2.62 9 -5 9 C-5 8.34 -5 7.68 -5 7 C-3.35 7 -1.7 7 0 7 C0 4.69 0 2.38 0 0 Z " fill="#217384" transform="translate(235,262)"/>
<path d="M0 0 C1.65 0.33 3.3 0.66 5 1 C4.01 1.495 4.01 1.495 3 2 C3 2.66 3 3.32 3 4 C4.65 4.33 6.3 4.66 8 5 C8 5.33 8 5.66 8 6 C1.25 6.125 1.25 6.125 -1 5 C-0.67 3.35 -0.34 1.7 0 0 Z " fill="#0E899C" transform="translate(260,287)"/>
<path d="M0 0 C2.88395737 1.44197868 4.76525152 3.70644235 7 6 C6.01 7.485 6.01 7.485 5 9 C4.34 8.67 3.68 8.34 3 8 C3.33 7.34 3.66 6.68 4 6 C3.34 6 2.68 6 2 6 C2 5.34 2 4.68 2 4 C1.01 3.67 0.02 3.34 -1 3 C-0.67 2.01 -0.34 1.02 0 0 Z " fill="#0D0D0D" transform="translate(191,267)"/>
<path d="M0 0 C3.3 0 6.6 0 10 0 C9.67 0.99 9.34 1.98 9 3 C7.34385343 3.38218767 5.67542976 3.71395102 4 4 C3.67 3.67 3.34 3.34 3 3 C2.01 2.67 1.02 2.34 0 2 C0 1.34 0 0.68 0 0 Z " fill="#4DB0E8" transform="translate(164,245)"/>
<path d="M0 0 C0.66 0 1.32 0 2 0 C2.59332061 4.37573952 3.13827236 8.57528444 3 13 C1.32889958 10.03821227 0.67317248 7.62928808 0.375 4.25 C0.30023438 3.45078125 0.22546875 2.6515625 0.1484375 1.828125 C0.09945313 1.22484375 0.05046875 0.6215625 0 0 Z " fill="#2893AA" transform="translate(287,278)"/>
<path d="M0 0 C0.66 0.66 1.32 1.32 2 2 C1.625 4.125 1.625 4.125 1 6 C-0.32 5.67 -1.64 5.34 -3 5 C-2.625 3.0625 -2.625 3.0625 -2 1 C-1.34 0.67 -0.68 0.34 0 0 Z " fill="#1A9CB3" transform="translate(249,272)"/>
<path d="M0 0 C1.65 0.33 3.3 0.66 5 1 C5 1.99 5 2.98 5 4 C3.02 4 1.04 4 -1 4 C-0.67 2.68 -0.34 1.36 0 0 Z " fill="#46AFE9" transform="translate(142,248)"/>
<path d="M0 0 C2.64 0 5.28 0 8 0 C8.625 1.8125 8.625 1.8125 9 4 C8.01 5.485 8.01 5.485 7 7 C6.67 5.02 6.34 3.04 6 1 C4.02 1 2.04 1 0 1 C0 0.67 0 0.34 0 0 Z " fill="#368A9D" transform="translate(318,273)"/>
<path d="M0 0 C1.32 0 2.64 0 4 0 C4 1.98 4 3.96 4 6 C3.34 6 2.68 6 2 6 C1.34 5.34 0.68 4.68 0 4 C0 2.68 0 1.36 0 0 Z " fill="#0294B1" transform="translate(252,268)"/>
<path d="M0 0 C2.97 0.495 2.97 0.495 6 1 C5.01 1.495 5.01 1.495 4 2 C4 2.99 4 3.98 4 5 C2.68 4.67 1.36 4.34 0 4 C0 2.68 0 1.36 0 0 Z " fill="#0A0A10" transform="translate(151,265)"/>
<path d="M0 0 C1.45945288 0.08708669 2.91765868 0.19526907 4.375 0.3125 C5.59316406 0.39951172 5.59316406 0.39951172 6.8359375 0.48828125 C9 1 9 1 11 4 C9.02 4.99 9.02 4.99 7 6 C7.33 4.68 7.66 3.36 8 2 C5.36 1.67 2.72 1.34 0 1 C0 0.67 0 0.34 0 0 Z " fill="#599FC6" transform="translate(201,232)"/>
<path d="M0 0 C2.09749995 2.35968744 2.96905704 3.54616994 3.1875 6.75 C3.0946875 7.86375 3.0946875 7.86375 3 9 C2.01 8.67 1.02 8.34 0 8 C0 5.36 0 2.72 0 0 Z " fill="#191919" transform="translate(199,279)"/>
<path d="M0 0 C1.670625 0.061875 1.670625 0.061875 3.375 0.125 C2.25 1.6875 2.25 1.6875 0.375 3.125 C-2.8125 2.8125 -2.8125 2.8125 -5.625 2.125 C-3.625 0.125 -3.625 0.125 0 0 Z " fill="#131112" transform="translate(190.625,290.875)"/>
</svg>
